<svg xmlns="http://www.w3.org/2000/svg" xmlns:xlink="http://www.w3.org/1999/xlink" version="1.1" x="0px" y="0px" viewBox="0 0 512 640" enable-background="new 0 0 512 512" xml:space="preserve"><g><path d="M181,218.5c0,41.4,33.6,75,75,75c41.4,0,75-33.6,75-75v-18.8H181V218.5z"/><path d="M163.6,143.3c6.4,21.3,45.1,37.7,92.4,37.7s86.1-16.4,92.4-37.7c24-7.9,38.8-18.9,38.8-31c0-24.2-58.8-43.7-131.3-43.7   s-131.3,19.6-131.3,43.7C124.8,124.4,139.6,135.4,163.6,143.3z M256,105.8c10.4,0,18.8,8.4,18.8,18.8c0,10.4-8.4,18.8-18.8,18.8   s-18.8-8.4-18.8-18.8C237.3,114.2,245.6,105.8,256,105.8z"/><polygon points="406,331 326.9,311.2 280.5,385.6 260.7,326.3 274.8,312.3 237.3,312.3 251.3,326.3 231.6,385.6 185.1,311.2    106,331 68.5,443.5 443.5,443.5  "/></g></svg>