<svg viewBox="0 0 53 52" version="1.1" xmlns="http://www.w3.org/2000/svg">
    <g id="Page-1" stroke="none" stroke-width="1" fill="none" fill-rule="evenodd">
    <g id="Group" transform="translate(1.000000, 0.000000)" fill="#009CD6">
        <g id="por-logo">
        <path d="M13.83,44.74 L7.13,48.67 C5.70047752,49.579132 3.88910146,49.6369042 2.40455138,48.820714 C0.920001289,48.0045237 -0.00172004044,46.4441229 -4.4408921e-16,44.75 C0.0229611238,43.0902185 0.925248464,41.5673707 2.37,40.75 L13.83,34 L25.49,40.6 L43.92,29.84 C44.6578598,29.3694406 45.514864,29.1196256 46.39,29.12 C48.5030626,29.1174059 50.351002,30.5428244 50.8850561,32.5872868 C51.4191101,34.6317492 50.5043787,36.7788321 48.66,37.81 L25.49,51.38 L13.83,44.74 Z"
            id="Shape"></path>
        <path d="M13.83,31.23 L7.13,35.16 C6.38904053,35.6318787 5.52845742,35.8817254 4.65,35.88 C2.54218622,35.8790445 0.699841894,34.4574697 0.164342282,32.4188133 C-0.371157331,30.3801569 0.534747944,28.2366917 2.37,27.2 L13.83,20.47 L25.49,27.06 L43.92,16.33 C45.3490624,15.4832805 47.1212899,15.4632751 48.5691017,16.2775197 C50.0169134,17.0917643 50.9203524,18.6165557 50.9391017,20.2775198 C50.9578511,21.9384838 50.0890624,23.4832806 48.66,24.33 L25.49,37.87 L13.83,31.23 Z"
            id="Shape"></path>
        <path d="M37.21,6.65 L43.92,2.7 C45.3490624,1.85328052 47.1212899,1.83327516 48.5691017,2.64751975 C50.0169134,3.46176433 50.9203523,4.98655573 50.9391017,6.64751978 C50.957851,8.30848383 50.0890624,9.85328056 48.66,10.7 L37.21,17.41 L25.55,10.81 L7.13,21.54 C5.69783927,22.4429613 3.88808178,22.496164 2.40535014,21.678894 C0.922618508,20.861624 0.00125913033,19.303051 0,17.61 C0.0229611238,15.9502185 0.925248464,14.4273707 2.37,13.61 L25.55,0 L37.21,6.65 Z"
            id="Shape"></path>
        </g>
    </g>
    </g>
</svg>